<svg width="24" height="24" viewBox="0 0 24 24" fill="none" xmlns="http://www.w3.org/2000/svg">
<path d="M7.25 4C5.89583 4 4.86126 5.03749 4.0498 6.34766C3.23834 7.65783 2.59991 9.35427 2.14844 11.1279C1.69696 12.9016 1.4375 14.7461 1.4375 16.3516C1.4375 17.9571 1.62117 19.3395 2.44238 20.252C2.82065 20.6723 3.31555 20.9445 3.8252 20.999C4.33484 21.0536 4.81583 20.9105 5.24316 20.6895C6.09783 20.2474 6.82832 19.4835 7.51172 18.6699C8.19512 17.8563 8.81364 16.9824 9.29785 16.3291C9.53996 16.0025 9.75111 15.7293 9.89648 15.5664C9.93045 15.5284 9.93851 15.5241 9.96289 15.5H12H12.0039H14.041C14.0654 15.5241 14.0736 15.5285 14.1074 15.5664C14.2528 15.7293 14.464 16.0025 14.7061 16.3291C15.1903 16.9824 15.8088 17.8563 16.4922 18.6699C17.1756 19.4835 17.9061 20.2474 18.7607 20.6895C19.1881 20.9105 19.6681 21.0536 20.1777 20.999C20.6874 20.9445 21.1823 20.6723 21.5605 20.252C22.3818 19.3394 22.5657 17.9571 22.5654 16.3516C22.5651 14.7461 22.3052 12.9006 21.8535 11.127C21.4018 9.35333 20.7634 7.65776 19.9521 6.34766C19.1409 5.03755 18.1076 4 16.7539 4C15.3504 4 14.4019 4.47066 13.7188 4.87012C13.0356 5.26958 12.6596 5.53516 12.0039 5.53516H12C11.3443 5.53516 10.9683 5.26958 10.2852 4.87012C9.60204 4.47066 8.6535 4 7.25 4ZM7.25 5.5C8.3465 5.5 8.89796 5.797 9.52734 6.16504C10.1567 6.53308 10.9057 7.03516 12 7.03516H12.0039C13.0982 7.03516 13.8462 6.53308 14.4756 6.16504C15.105 5.797 15.6574 5.5 16.7539 5.5C17.2735 5.5 17.9883 6.02495 18.6768 7.13672C19.3652 8.24849 19.9766 9.83417 20.4004 11.498C20.8241 13.1619 21.0652 14.9102 21.0654 16.3516C21.0657 17.7929 20.75 18.9106 20.4463 19.248C20.2621 19.4527 20.1476 19.493 20.0186 19.5068C19.8895 19.5206 19.7016 19.488 19.4492 19.3574C18.9445 19.0964 18.2697 18.454 17.6406 17.7051C17.0115 16.9562 16.4113 16.1114 15.9111 15.4365C15.661 15.0991 15.4386 14.8059 15.2266 14.5684C15.1205 14.4496 15.0195 14.3435 14.8916 14.2432C14.7637 14.1428 14.6133 14 14.2539 14H12.0039H12H9.75C9.39062 14 9.24021 14.1428 9.1123 14.2432C8.9844 14.3435 8.88337 14.4496 8.77734 14.5684C8.5653 14.8059 8.34286 15.0991 8.09277 15.4365C7.59261 16.1114 6.99238 16.9562 6.36328 17.7051C5.73418 18.454 5.05842 19.0964 4.55371 19.3574C4.30136 19.488 4.11438 19.5206 3.98535 19.5068C3.85632 19.493 3.74185 19.4527 3.55762 19.248C3.25383 18.9105 2.9375 17.7929 2.9375 16.3516C2.9375 14.9102 3.17804 13.1609 3.60156 11.4971C4.02509 9.83323 4.63665 8.24842 5.3252 7.13672C6.01374 6.02501 6.72917 5.5 7.25 5.5ZM16.25 8C16.0511 8 15.8603 8.07902 15.7197 8.21967C15.579 8.36032 15.5 8.55109 15.5 8.75C15.5 8.94891 15.579 9.13968 15.7197 9.28033C15.8603 9.42098 16.0511 9.5 16.25 9.5C16.4489 9.5 16.6397 9.42098 16.7803 9.28033C16.921 9.13968 17 8.94891 17 8.75C17 8.55109 16.921 8.36032 16.7803 8.21967C16.6397 8.07902 16.4489 8 16.25 8ZM7.73828 8.48926C7.53954 8.49236 7.35016 8.57423 7.21173 8.71686C7.0733 8.8595 6.99715 9.05125 7 9.25V10H6.25C6.15062 9.99859 6.05194 10.017 5.95972 10.054C5.86749 10.0911 5.78355 10.1461 5.71277 10.2159C5.642 10.2857 5.58579 10.3688 5.54743 10.4605C5.50907 10.5522 5.48932 10.6506 5.48932 10.75C5.48932 10.8494 5.50907 10.9478 5.54743 11.0395C5.58579 11.1312 5.642 11.2143 5.71277 11.2841C5.78355 11.3539 5.86749 11.4089 5.95972 11.446C6.05194 11.483 6.15062 11.5014 6.25 11.5H7V12.25C6.99859 12.3494 7.01696 12.4481 7.05402 12.5403C7.09108 12.6325 7.1461 12.7164 7.21588 12.7872C7.28566 12.858 7.36882 12.9142 7.46051 12.9526C7.5522 12.9909 7.65061 13.0107 7.75 13.0107C7.84939 13.0107 7.9478 12.9909 8.03949 12.9526C8.13118 12.9142 8.21434 12.858 8.28412 12.7872C8.3539 12.7164 8.40892 12.6325 8.44598 12.5403C8.48304 12.4481 8.50141 12.3494 8.5 12.25V11.5H9.25C9.34938 11.5014 9.44806 11.483 9.54028 11.446C9.63251 11.4089 9.71645 11.3539 9.78723 11.2841C9.858 11.2143 9.91421 11.1312 9.95257 11.0395C9.99093 10.9478 10.0107 10.8494 10.0107 10.75C10.0107 10.6506 9.99093 10.5522 9.95257 10.4605C9.91421 10.3688 9.858 10.2857 9.78723 10.2159C9.71645 10.1461 9.63251 10.0911 9.54028 10.054C9.44806 10.017 9.34938 9.99859 9.25 10H8.5V9.25C8.50144 9.14962 8.48271 9.04997 8.44493 8.95695C8.40715 8.86394 8.35108 8.77946 8.28004 8.70852C8.20901 8.63758 8.12446 8.58161 8.0314 8.54395C7.93834 8.50629 7.83866 8.48769 7.73828 8.48926ZM14.25 10C14.0511 10 13.8603 10.079 13.7197 10.2197C13.579 10.3603 13.5 10.5511 13.5 10.75C13.5 10.9489 13.579 11.1397 13.7197 11.2803C13.8603 11.421 14.0511 11.5 14.25 11.5C14.4489 11.5 14.6397 11.421 14.7803 11.2803C14.921 11.1397 15 10.9489 15 10.75C15 10.5511 14.921 10.3603 14.7803 10.2197C14.6397 10.079 14.4489 10 14.25 10ZM18.25 10C18.0511 10 17.8603 10.079 17.7197 10.2197C17.579 10.3603 17.5 10.5511 17.5 10.75C17.5 10.9489 17.579 11.1397 17.7197 11.2803C17.8603 11.421 18.0511 11.5 18.25 11.5C18.4489 11.5 18.6397 11.421 18.7803 11.2803C18.921 11.1397 19 10.9489 19 10.75C19 10.5511 18.921 10.3603 18.7803 10.2197C18.6397 10.079 18.4489 10 18.25 10ZM16.25 12C16.0511 12 15.8603 12.079 15.7197 12.2197C15.579 12.3603 15.5 12.5511 15.5 12.75C15.5 12.9489 15.579 13.1397 15.7197 13.2803C15.8603 13.421 16.0511 13.5 16.25 13.5C16.4489 13.5 16.6397 13.421 16.7803 13.2803C16.921 13.1397 17 12.9489 17 12.75C17 12.5511 16.921 12.3603 16.7803 12.2197C16.6397 12.079 16.4489 12 16.25 12Z" fill="#0E251F"/>
</svg>
