<svg width="24" height="24" viewBox="0 0 24 24" fill="none" xmlns="http://www.w3.org/2000/svg">
<path d="M22 12C22 13.9778 21.4135 15.9112 20.3147 17.5557C19.2159 19.2002 17.6541 20.4819 15.8268 21.2388C13.9996 21.9957 11.9889 22.1937 10.0491 21.8078C8.10929 21.422 6.32746 20.4696 4.92894 19.0711C3.53041 17.6725 2.578 15.8907 2.19215 13.9509C1.8063 12.0111 2.00433 10.0004 2.76121 8.17316C3.51809 6.3459 4.79981 4.78412 6.4443 3.6853C8.08879 2.58649 10.0222 2 12 2C14.6522 2 17.1957 3.05357 19.0711 4.92893C20.9464 6.8043 22 9.34783 22 12ZM20.7083 12C20.7121 10.5812 20.3691 9.18302 19.7092 7.92702C19.0493 6.67102 18.0926 5.59527 16.9222 4.79334C15.7518 3.99141 14.4032 3.48759 12.9936 3.32571C11.5841 3.16382 10.1564 3.34878 8.83466 3.8645C7.51292 4.38021 6.3372 5.21105 5.40978 6.28475C4.48236 7.35845 3.83132 8.64249 3.51329 10.0252C3.19527 11.4079 3.21989 12.8473 3.58502 14.2183C3.95015 15.5893 4.64473 16.8503 5.60834 17.8917C5.7332 16.9697 6.18771 16.1241 6.88782 15.5113C7.58793 14.8985 8.48626 14.56 9.41667 14.5583C10.25 14.5583 10.6417 15.0167 12 15.0167C13.3583 15.0167 13.75 14.5583 14.5833 14.5583C15.5142 14.5582 16.4135 14.8961 17.114 15.5092C17.8145 16.1224 18.2685 16.969 18.3917 17.8917C19.8806 16.2911 20.7083 14.1861 20.7083 12ZM17.1583 18.45C17.1583 17.7671 16.887 17.1121 16.4041 16.6292C15.9212 16.1463 15.2663 15.875 14.5833 15.875C13.742 16.1234 12.8755 16.2771 12 16.3333C11.1245 16.2771 10.258 16.1234 9.41667 15.875C8.73374 15.875 8.07878 16.1463 7.59587 16.6292C7.11296 17.1121 6.84167 17.7671 6.84167 18.45V19C8.33268 20.1093 10.1416 20.7084 12 20.7084C13.8584 20.7084 15.6673 20.1093 17.1583 19V18.45ZM15.55 10.0667C15.55 10.7688 15.3418 11.4551 14.9517 12.0389C14.5616 12.6227 14.0072 13.0777 13.3585 13.3464C12.7099 13.6151 11.9961 13.6854 11.3074 13.5485C10.6188 13.4115 9.98625 13.0734 9.48977 12.5769C8.9933 12.0804 8.65519 11.4479 8.51822 10.7592C8.38124 10.0706 8.45154 9.35682 8.72023 8.70814C8.98892 8.05946 9.44393 7.50503 10.0277 7.11495C10.6115 6.72487 11.2979 6.51667 12 6.51667C12.9415 6.51667 13.8445 6.89068 14.5102 7.55644C15.176 8.22219 15.55 9.12515 15.55 10.0667ZM14.2583 10.0667C14.2583 9.62001 14.1259 9.18338 13.8777 8.812C13.6296 8.44062 13.2769 8.15117 12.8642 7.98024C12.4516 7.80931 11.9975 7.76459 11.5594 7.85173C11.1213 7.93886 10.719 8.15395 10.4031 8.46978C10.0873 8.78562 9.8722 9.18801 9.78506 9.62609C9.69792 10.0642 9.74265 10.5182 9.91357 10.9309C10.0845 11.3435 10.374 11.6963 10.7453 11.9444C11.1167 12.1925 11.5533 12.325 12 12.325C12.2966 12.325 12.5902 12.2666 12.8642 12.1531C13.1382 12.0396 13.3872 11.8733 13.5969 11.6635C13.8066 11.4538 13.9729 11.2049 14.0864 10.9309C14.1999 10.6569 14.2583 10.3632 14.2583 10.0667Z" fill="#0E251F"/>
</svg>
