<svg width="24" height="24" viewBox="0 0 24 24" fill="none" xmlns="http://www.w3.org/2000/svg">
<path d="M8.25 2.5C6.458 2.5 5 3.958 5 5.75V20.75C5 21.0315 5.1577 21.29 5.4082 21.418C5.6587 21.546 5.95998 21.5234 6.18848 21.3584L11.0195 17.8799C11.012 17.7534 11 17.6285 11 17.5C11 16.9455 11.078 16.41 11.209 15.8955L6.5 19.2861V5.75C6.5 4.785 7.285 4 8.25 4H15.75C16.715 4 17.5 4.785 17.5 5.75V11C18.017 11 18.5175 11.0671 19 11.1816V5.75C19 3.958 17.542 2.5 15.75 2.5H8.25ZM17.5 12C14.4625 12 12 14.4625 12 17.5C12 20.5375 14.4625 23 17.5 23C20.5375 23 23 20.5375 23 17.5C23 14.4625 20.5375 12 17.5 12ZM17.5 14C17.74 14 17.9542 14.1529 18.0322 14.3799L18.5889 16H20.4375C20.679 16 20.8937 16.1543 20.9707 16.3828C21.0477 16.6118 20.9698 16.8647 20.7773 17.0107L19.2803 18.1465L19.7871 19.7695C19.8601 20.0025 19.7742 20.2555 19.5752 20.3965C19.4777 20.4655 19.3635 20.5 19.25 20.5C19.1315 20.5 19.0126 20.4627 18.9131 20.3877L17.5 19.3301L16.0869 20.3877C15.8919 20.5342 15.6243 20.5385 15.4248 20.3975C15.2258 20.2565 15.1399 20.0025 15.2129 19.7695L15.7197 18.1475L14.2227 17.0107C14.0302 16.8647 13.9523 16.6128 14.0293 16.3838C14.1068 16.1548 14.321 16 14.5625 16H16.4111L16.9678 14.3799C17.0458 14.1529 17.26 14 17.5 14Z" fill="#0E251F"/>
</svg>
