<svg width="28" height="27" viewBox="0 0 28 27" fill="none" xmlns="http://www.w3.org/2000/svg">
<path d="M4.125 0C1.86017 0 0 1.86017 0 4.125V22.875C0 25.1398 1.86017 27 4.125 27H22.875C25.1398 27 27 25.1398 27 22.875V20.0771C27.0202 19.9554 27.0202 19.8312 27 19.7095V4.125C27 1.86017 25.1398 0 22.875 0H4.125ZM14.625 2.25H22.875C23.9237 2.25 24.75 3.07633 24.75 4.125V12.375H14.625V2.25ZM2.25 14.625H4.74023C4.69342 14.7922 4.68597 14.968 4.71845 15.1387C4.75094 15.3093 4.82248 15.47 4.92747 15.6084C5.03247 15.7467 5.16806 15.8588 5.32364 15.936C5.47922 16.0132 5.65055 16.0533 5.82422 16.0532C5.99776 16.0531 6.16893 16.0128 6.32432 15.9355C6.47971 15.8583 6.61511 15.7461 6.71994 15.6078C6.82477 15.4695 6.89618 15.3088 6.92859 15.1383C6.96099 14.9678 6.95351 14.7921 6.90674 14.625H10.7402C10.6934 14.7922 10.686 14.968 10.7185 15.1387C10.7509 15.3093 10.8225 15.47 10.9275 15.6084C11.0325 15.7467 11.1681 15.8588 11.3236 15.936C11.4792 16.0132 11.6505 16.0533 11.8242 16.0532C12.0172 16.0529 12.2069 16.003 12.375 15.9082V19.9482C12.2069 19.8535 12.0172 19.8035 11.8242 19.8032C11.5259 19.8032 11.2397 19.9217 11.0287 20.1327C10.8177 20.3437 10.6992 20.6299 10.6992 20.9282C10.6992 21.2266 10.8177 21.5127 11.0287 21.7237C11.2397 21.9347 11.5259 22.0532 11.8242 22.0532C12.0172 22.0529 12.2069 22.003 12.375 21.9082V24.75H9.59033C9.75508 24.596 9.86973 24.396 9.9194 24.176C9.96907 23.956 9.95147 23.7261 9.86888 23.5163C9.78628 23.3064 9.64252 23.1262 9.45624 22.999C9.26995 22.8719 9.04976 22.8037 8.82422 22.8032C8.59856 22.8034 8.37815 22.8714 8.19164 22.9984C8.00514 23.1255 7.86114 23.3056 7.77837 23.5156C7.69559 23.7255 7.67787 23.9555 7.72749 24.1756C7.77712 24.3958 7.8918 24.5959 8.05664 24.75H4.125C3.96131 24.75 3.80535 24.7235 3.65479 24.6855C3.80147 24.5244 3.8982 24.3242 3.93323 24.1091C3.96827 23.894 3.94009 23.6734 3.85213 23.4741C3.76416 23.2747 3.6202 23.1052 3.43772 22.9861C3.25525 22.867 3.04212 22.8035 2.82422 22.8032C2.62546 22.8036 2.43037 22.8567 2.25879 22.957C2.25761 22.9292 2.25 22.9031 2.25 22.875V18.895C2.42372 18.9984 2.62208 19.053 2.82422 19.0532C3.12259 19.0532 3.40874 18.9347 3.61971 18.7237C3.83069 18.5127 3.94922 18.2266 3.94922 17.9282C3.94922 17.6299 3.83069 17.3437 3.61971 17.1327C3.40874 16.9217 3.12259 16.8032 2.82422 16.8032C2.62194 16.8039 2.42357 16.859 2.25 16.9629V14.625ZM16.2158 14.625H19.0371C19.0508 14.6405 19.065 14.6557 19.0796 14.6704L24.75 20.3408V22.875C24.75 22.9634 24.735 23.0479 24.7236 23.1328L16.2158 14.625ZM22.2158 14.625H24.75V17.1592L22.2158 14.625ZM14.625 16.2158L23.1328 24.7236C23.0479 24.735 22.9634 24.75 22.875 24.75H20.3394C20.3251 24.7345 20.3105 24.7193 20.2954 24.7046L14.6704 19.0796C14.6557 19.065 14.6405 19.0508 14.625 19.0371V16.2158ZM8.82422 16.8032C8.52585 16.8032 8.2397 16.9217 8.02872 17.1327C7.81775 17.3437 7.69922 17.6299 7.69922 17.9282C7.69922 18.2266 7.81775 18.5127 8.02872 18.7237C8.2397 18.9347 8.52585 19.0532 8.82422 19.0532C9.12259 19.0532 9.40874 18.9347 9.61971 18.7237C9.83069 18.5127 9.94922 18.2266 9.94922 17.9282C9.94922 17.6299 9.83069 17.3437 9.61971 17.1327C9.40874 16.9217 9.12259 16.8032 8.82422 16.8032ZM5.82422 19.8032C5.52585 19.8032 5.2397 19.9217 5.02872 20.1327C4.81775 20.3437 4.69922 20.6299 4.69922 20.9282C4.69922 21.2266 4.81775 21.5127 5.02872 21.7237C5.2397 21.9347 5.52585 22.0532 5.82422 22.0532C6.12259 22.0532 6.40874 21.9347 6.61971 21.7237C6.83069 21.5127 6.94922 21.2266 6.94922 20.9282C6.94922 20.6299 6.83069 20.3437 6.61971 20.1327C6.40874 19.9217 6.12259 19.8032 5.82422 19.8032ZM14.625 22.2158L17.1592 24.75H14.625V22.2158Z" fill="#F2C230"/>
<path d="M4.125 0C1.86017 0 0 1.86017 0 4.125V22.875C0 25.1398 1.86017 27 4.125 27H22.875C25.1398 27 27 25.1398 27 22.875V20.0771C27.0202 19.9554 27.0202 19.8312 27 19.7095V4.125C27 1.86017 25.1398 0 22.875 0H4.125ZM14.625 2.25H22.875C23.9237 2.25 24.75 3.07633 24.75 4.125V12.375H14.625V2.25ZM2.25 14.625H4.74023C4.69342 14.7922 4.68597 14.968 4.71845 15.1387C4.75094 15.3093 4.82248 15.47 4.92747 15.6084C5.03247 15.7467 5.16806 15.8588 5.32364 15.936C5.47922 16.0132 5.65055 16.0533 5.82422 16.0532C5.99776 16.0531 6.16893 16.0128 6.32432 15.9355C6.47971 15.8583 6.61511 15.7461 6.71994 15.6078C6.82477 15.4695 6.89618 15.3088 6.92859 15.1383C6.96099 14.9678 6.95351 14.7921 6.90674 14.625H10.7402C10.6934 14.7922 10.686 14.968 10.7185 15.1387C10.7509 15.3093 10.8225 15.47 10.9275 15.6084C11.0325 15.7467 11.1681 15.8588 11.3236 15.936C11.4792 16.0132 11.6505 16.0533 11.8242 16.0532C12.0172 16.0529 12.2069 16.003 12.375 15.9082V19.9482C12.2069 19.8535 12.0172 19.8035 11.8242 19.8032C11.5259 19.8032 11.2397 19.9217 11.0287 20.1327C10.8177 20.3437 10.6992 20.6299 10.6992 20.9282C10.6992 21.2266 10.8177 21.5127 11.0287 21.7237C11.2397 21.9347 11.5259 22.0532 11.8242 22.0532C12.0172 22.0529 12.2069 22.003 12.375 21.9082V24.75H9.59033C9.75508 24.596 9.86973 24.396 9.9194 24.176C9.96907 23.956 9.95147 23.7261 9.86888 23.5163C9.78628 23.3064 9.64252 23.1262 9.45624 22.999C9.26995 22.8719 9.04976 22.8037 8.82422 22.8032C8.59856 22.8034 8.37815 22.8714 8.19164 22.9984C8.00514 23.1255 7.86114 23.3056 7.77837 23.5156C7.69559 23.7255 7.67787 23.9555 7.72749 24.1756C7.77712 24.3958 7.8918 24.5959 8.05664 24.75H4.125C3.96131 24.75 3.80535 24.7235 3.65479 24.6855C3.80147 24.5244 3.8982 24.3242 3.93323 24.1091C3.96827 23.894 3.94009 23.6734 3.85213 23.4741C3.76416 23.2747 3.6202 23.1052 3.43772 22.9861C3.25525 22.867 3.04212 22.8035 2.82422 22.8032C2.62546 22.8036 2.43037 22.8567 2.25879 22.957C2.25761 22.9292 2.25 22.9031 2.25 22.875V18.895C2.42372 18.9984 2.62208 19.053 2.82422 19.0532C3.12259 19.0532 3.40874 18.9347 3.61971 18.7237C3.83069 18.5127 3.94922 18.2266 3.94922 17.9282C3.94922 17.6299 3.83069 17.3437 3.61971 17.1327C3.40874 16.9217 3.12259 16.8032 2.82422 16.8032C2.62194 16.8039 2.42357 16.859 2.25 16.9629V14.625ZM16.2158 14.625H19.0371C19.0508 14.6405 19.065 14.6557 19.0796 14.6704L24.75 20.3408V22.875C24.75 22.9634 24.735 23.0479 24.7236 23.1328L16.2158 14.625ZM22.2158 14.625H24.75V17.1592L22.2158 14.625ZM14.625 16.2158L23.1328 24.7236C23.0479 24.735 22.9634 24.75 22.875 24.75H20.3394C20.3251 24.7345 20.3105 24.7193 20.2954 24.7046L14.6704 19.0796C14.6557 19.065 14.6405 19.0508 14.625 19.0371V16.2158ZM8.82422 16.8032C8.52585 16.8032 8.2397 16.9217 8.02872 17.1327C7.81775 17.3437 7.69922 17.6299 7.69922 17.9282C7.69922 18.2266 7.81775 18.5127 8.02872 18.7237C8.2397 18.9347 8.52585 19.0532 8.82422 19.0532C9.12259 19.0532 9.40874 18.9347 9.61971 18.7237C9.83069 18.5127 9.94922 18.2266 9.94922 17.9282C9.94922 17.6299 9.83069 17.3437 9.61971 17.1327C9.40874 16.9217 9.12259 16.8032 8.82422 16.8032ZM5.82422 19.8032C5.52585 19.8032 5.2397 19.9217 5.02872 20.1327C4.81775 20.3437 4.69922 20.6299 4.69922 20.9282C4.69922 21.2266 4.81775 21.5127 5.02872 21.7237C5.2397 21.9347 5.52585 22.0532 5.82422 22.0532C6.12259 22.0532 6.40874 21.9347 6.61971 21.7237C6.83069 21.5127 6.94922 21.2266 6.94922 20.9282C6.94922 20.6299 6.83069 20.3437 6.61971 20.1327C6.40874 19.9217 6.12259 19.8032 5.82422 19.8032ZM14.625 22.2158L17.1592 24.75H14.625V22.2158Z" fill="#F2C230"/>
</svg>
